<svg width="83" height="83" viewBox="0 0 83 83" fill="none" xmlns="http://www.w3.org/2000/svg">
<path d="M29.1489 0.0422111C12.8775 0.128218 4.70847 28.0023 1.6597 42.3304C-1.38907 56.6586 1.79666 86.0518 25.4445 82.1526C29.2669 81.5224 30.1592 81.3932 33.3101 79.8177C38.9185 77.0135 45.556 75.0405 51.5542 74.4449C54.0138 74.2007 57.1238 73.3919 58.7697 73.0971C71.9683 70.7329 85.4378 57.996 81.36 44.6501C78.2977 34.6276 69.3254 30.593 60.34 31.1477C55.4053 31.4523 50.1536 28.5689 49.1005 25.3836C45.6703 15.0085 41.7253 -0.0241462 29.1489 0.0422111Z" fill="url(#paint0_linear_73_10385)"/>
<path opacity="0.1" d="M72.3051 12.8975C73.7028 12.8975 74.8358 14.026 74.8358 15.4182V56.7877C74.8358 57.4008 74.6887 58.0051 74.4065 58.5502L73.0237 61.222C72.7226 61.8038 71.8876 61.8038 71.5865 61.222L70.2037 58.5502C69.9217 58.0051 69.7744 57.4008 69.7744 56.7877V15.4182C69.7744 14.026 70.9074 12.8975 72.3051 12.8975Z" fill="#3A85F4"/>
<path opacity="0.1" d="M62.846 78.0257H18.3823C16.5963 78.0257 15.1484 76.5836 15.1484 74.8045V15.9578C15.1484 14.1787 16.5963 12.7366 18.3823 12.7366H62.846C64.6321 12.7366 66.0799 14.1787 66.0799 15.9578V74.8045C66.0799 76.5834 64.6319 78.0257 62.846 78.0257Z" fill="#3A85F4"/>
<path d="M62.846 73.6776H18.3823C16.5963 73.6776 15.1484 72.2355 15.1484 70.4564V11.6097C15.1484 9.83057 16.5963 8.38843 18.3823 8.38843H62.846C64.6321 8.38843 66.0799 9.83057 66.0799 11.6097V70.4564C66.0799 72.2353 64.6319 73.6776 62.846 73.6776Z" fill="#D4EBFF"/>
<path fill-rule="evenodd" clip-rule="evenodd" d="M62.8479 74.4823H18.3842C16.1552 74.4823 14.3418 72.676 14.3418 70.4558V11.6091C14.3418 9.38882 16.1552 7.58252 18.3842 7.58252H38.9654H62.8479C65.0768 7.58252 66.8902 9.38882 66.8902 11.6091V70.4556C66.8902 72.676 65.0768 74.4823 62.8479 74.4823ZM18.3842 9.19313H38.9654H62.8479C64.1852 9.19313 65.2733 10.2769 65.2733 11.6091V70.4556C65.2733 71.7878 64.1852 72.8715 62.8479 72.8715H18.3842C17.0468 72.8715 15.9588 71.7878 15.9588 70.4556V11.6091C15.9588 10.2769 17.0468 9.19313 18.3842 9.19313Z" fill="#3A85F4"/>
<path d="M62.1968 13.0592V69.0055C62.1968 69.4517 61.8346 69.8108 61.3883 69.8108H51.7765C52.086 69.8108 51.3635 69.8108 51.7765 69.8108H29.4763C29.7858 69.8108 29.1668 69.8108 29.4763 69.8108H19.8358C19.3895 69.8108 19.0273 69.4517 19.0273 69.0055V13.0592C19.0273 12.6131 19.3895 12.2539 19.8358 12.2539H29.4763L51.7479 12.2539L61.3883 12.2539C61.8346 12.2539 62.1968 12.6131 62.1968 13.0592Z" fill="white"/>
<path d="M11.5099 30.6361H11.0248V30.153C11.0248 29.7081 10.6627 29.3477 10.2163 29.3477C9.76986 29.3477 9.40782 29.7081 9.40782 30.153V30.6361H8.92274C8.47629 30.6361 8.11426 30.9966 8.11426 31.4415C8.11426 31.8863 8.47629 32.2468 8.92274 32.2468H9.40782V32.7299C9.40782 33.1748 9.76986 33.5353 10.2163 33.5353C10.6627 33.5353 11.0248 33.1748 11.0248 32.7299V32.2468H11.5099C11.9563 32.2468 12.3183 31.8863 12.3183 31.4415C12.3183 30.9966 11.9563 30.6361 11.5099 30.6361Z" fill="#81C2FF"/>
<path d="M72.9522 67.8905H72.4672V67.4074C72.4672 66.9625 72.1051 66.6021 71.6587 66.6021C71.2122 66.6021 70.8502 66.9625 70.8502 67.4074V67.8905H70.3651C69.9187 67.8905 69.5566 68.251 69.5566 68.6959C69.5566 69.1407 69.9187 69.5012 70.3651 69.5012H70.8502V69.9843C70.8502 70.4292 71.2122 70.7896 71.6587 70.7896C72.1051 70.7896 72.4672 70.4292 72.4672 69.9843V69.5012H72.9522C73.3987 69.5012 73.7607 69.1407 73.7607 68.6959C73.7607 68.251 73.3987 67.8905 72.9522 67.8905Z" fill="#D4EBFF"/>
<path d="M8.43564 37.8356H7.95056V37.3524C7.95056 36.9076 7.58852 36.5471 7.14208 36.5471C6.69564 36.5471 6.3336 36.9076 6.3336 37.3524V37.8356H5.84852C5.40208 37.8356 5.04004 38.1961 5.04004 38.6409C5.04004 39.0858 5.40208 39.4462 5.84852 39.4462H6.3336V39.9294C6.3336 40.3743 6.69564 40.7347 7.14208 40.7347C7.58852 40.7347 7.95056 40.3743 7.95056 39.9294V39.4462H8.43564C8.88209 39.4462 9.24412 39.0858 9.24412 38.6409C9.24412 38.1961 8.88209 37.8356 8.43564 37.8356Z" fill="#D4EBFF"/>
<path d="M9.72857 12.0934C9.5216 12.0934 9.31479 12.0148 9.15682 11.8574L8.43501 11.1385L7.7132 11.8574C7.39741 12.172 6.88564 12.172 6.56985 11.8574C6.25406 11.5431 6.25406 11.0331 6.56985 10.7187L7.86342 9.43025C8.17921 9.1157 8.69097 9.1157 9.00676 9.43025L10.3003 10.7187C10.6161 11.0331 10.6161 11.5431 10.3003 11.8574C10.1424 12.0148 9.93554 12.0934 9.72857 12.0934Z" fill="#D4EBFF"/>
<path d="M77.4239 65.0062C77.2169 65.0062 77.0101 64.9276 76.8521 64.7703L76.1303 64.0513L75.4085 64.7703C75.0927 65.0848 74.581 65.0848 74.2652 64.7703C73.9494 64.4559 73.9494 63.946 74.2652 63.6316L75.5587 62.3431C75.8745 62.0285 76.3863 62.0285 76.7021 62.3431L77.9956 63.6316C78.3114 63.946 78.3114 64.4559 77.9956 64.7703C77.8377 64.9275 77.6309 65.0062 77.4239 65.0062Z" fill="#D4EBFF"/>
<path d="M58.968 36.8489H22.3407C21.8941 36.8489 21.5322 36.4883 21.5322 36.0435C21.5322 35.5987 21.8941 35.238 22.3407 35.238H58.968C59.4146 35.238 59.7764 35.5987 59.7764 36.0435C59.7764 36.4883 59.4146 36.8489 58.968 36.8489Z" fill="#5A5A5A"/>
<path d="M58.9689 20.5743H22.3417C21.8951 20.5743 21.5332 20.2136 21.5332 19.7688C21.5332 19.3241 21.8951 18.9634 22.3417 18.9634H58.9689C59.4155 18.9634 59.7774 19.3241 59.7774 19.7688C59.7774 20.2136 59.4155 20.5743 58.9689 20.5743Z" fill="#5A5A5A"/>
<path d="M25.0119 32.0113H22.3407C21.8941 32.0113 21.5322 31.6506 21.5322 31.2058C21.5322 30.7611 21.8941 30.4004 22.3407 30.4004H25.0119C25.4585 30.4004 25.8204 30.7611 25.8204 31.2058C25.8204 31.6506 25.4585 32.0113 25.0119 32.0113Z" fill="#5A5A5A"/>
<path d="M42.1559 38.3789H22.3754C21.9532 38.3789 21.5761 38.6864 21.536 39.1051C21.49 39.5855 21.868 39.9898 22.3406 39.9898H42.1559C42.6024 39.9898 42.9644 39.6291 42.9644 39.1844C42.9644 38.7394 42.6024 38.3789 42.1559 38.3789Z" fill="#5A5A5A"/>
<path d="M54.0852 38.3789H46.2821C45.8357 38.3789 45.4736 38.7396 45.4736 39.1844C45.4736 39.6291 45.8357 39.9898 46.2821 39.9898H54.12C54.5928 39.9898 54.9706 39.5855 54.9246 39.1051C54.8846 38.6864 54.5076 38.3789 54.0852 38.3789Z" fill="#5A5A5A"/>
<path d="M42.1559 22.1045H22.3754C21.9532 22.1045 21.5761 22.412 21.536 22.8307C21.49 23.3111 21.868 23.7154 22.3406 23.7154H42.1559C42.6024 23.7154 42.9644 23.3547 42.9644 22.9099C42.9644 22.465 42.6024 22.1045 42.1559 22.1045Z" fill="#5A5A5A"/>
<path d="M54.0852 22.1045H46.2821C45.8357 22.1045 45.4736 22.4652 45.4736 22.9099C45.4736 23.3547 45.8357 23.7154 46.2821 23.7154H54.12C54.5928 23.7154 54.9706 23.3111 54.9246 22.8307C54.8846 22.412 54.5076 22.1045 54.0852 22.1045Z" fill="#5A5A5A"/>
<path d="M58.968 43.1312H22.3407C21.8941 43.1312 21.5322 42.7705 21.5322 42.3257C21.5322 41.8809 21.8941 41.5203 22.3407 41.5203H58.968C59.4146 41.5203 59.7764 41.8809 59.7764 42.3257C59.7764 42.7705 59.4146 43.1312 58.968 43.1312Z" fill="#5A5A5A"/>
<path d="M58.968 26.8565H22.3407C21.8941 26.8565 21.5322 26.4958 21.5322 26.0511C21.5322 25.6063 21.8941 25.2456 22.3407 25.2456H58.968C59.4146 25.2456 59.7764 25.6063 59.7764 26.0511C59.7764 26.4958 59.4146 26.8565 58.968 26.8565Z" fill="#5A5A5A"/>
<path d="M58.968 53.5721H22.3407C21.8941 53.5721 21.5322 53.2114 21.5322 52.7666C21.5322 52.3219 21.8941 51.9612 22.3407 51.9612H58.968C59.4146 51.9612 59.7764 52.3219 59.7764 52.7666C59.7764 53.2114 59.4146 53.5721 58.968 53.5721Z" fill="#5A5A5A"/>
<path d="M25.0129 48.7342H22.3417C21.8951 48.7342 21.5332 48.3735 21.5332 47.9287C21.5332 47.484 21.8951 47.1233 22.3417 47.1233H25.0129C25.4595 47.1233 25.8214 47.484 25.8214 47.9287C25.8214 48.3735 25.4595 48.7342 25.0129 48.7342Z" fill="#5A5A5A"/>
<path d="M42.1559 55.1023H22.3754C21.9532 55.1023 21.5761 55.4098 21.536 55.8285C21.49 56.3089 21.868 56.7132 22.3406 56.7132H42.1559C42.6024 56.7132 42.9644 56.3525 42.9644 55.9077C42.9644 55.463 42.6024 55.1023 42.1559 55.1023Z" fill="#5A5A5A"/>
<path d="M54.0852 55.1023H46.2821C45.8357 55.1023 45.4736 55.463 45.4736 55.9077C45.4736 56.3525 45.8357 56.7132 46.2821 56.7132H54.12C54.5928 56.7132 54.9706 56.3089 54.9246 55.8285C54.8846 55.4098 54.5076 55.1023 54.0852 55.1023Z" fill="#5A5A5A"/>
<path d="M58.968 59.8543H22.3407C21.8941 59.8543 21.5322 59.4936 21.5322 59.0489C21.5322 58.6041 21.8941 58.2434 22.3407 58.2434H58.968C59.4146 58.2434 59.7764 58.6041 59.7764 59.0489C59.7764 59.4936 59.4146 59.8543 58.968 59.8543Z" fill="#5A5A5A"/>
<path d="M72.3051 8.54907C73.7028 8.54907 74.8358 9.67763 74.8358 11.0698V52.4393C74.8358 53.0524 74.6887 53.6568 74.4065 54.2018L73.0237 56.8736C72.7226 57.4554 71.8876 57.4554 71.5865 56.8736L70.2037 54.2018C69.9217 53.6568 69.7744 53.0524 69.7744 52.4393V11.0698C69.7744 9.67763 70.9074 8.54907 72.3051 8.54907Z" fill="white"/>
<path d="M69.7744 46.7583H74.8356V49.0316H69.7744V46.7583Z" fill="#D4EBFF"/>
<path d="M74.8358 14.2695V11.0698C74.8358 9.67763 73.7028 8.54907 72.3051 8.54907C70.9074 8.54907 69.7744 9.67763 69.7744 11.0698V14.2695H74.8358Z" fill="#D4EBFF"/>
<path fill-rule="evenodd" clip-rule="evenodd" d="M72.305 58.1152C71.6969 58.1152 71.1463 57.7809 70.8677 57.2426L69.4849 54.5708C69.1453 53.9147 68.9658 53.1776 68.9658 52.4393V31.3367L68.966 11.0698C68.966 9.23581 70.4639 7.7439 72.3052 7.7439C74.1464 7.7439 75.6442 9.23597 75.6442 11.0698V52.4391C75.6442 53.1774 75.4647 53.9144 75.1251 54.5706L73.7423 57.2424C73.4635 57.7807 72.913 58.1152 72.305 58.1152ZM70.5828 52.4391V31.3367L70.5829 11.0698C70.5829 10.1239 71.3555 9.35451 72.3052 9.35451C73.2546 9.35451 74.0272 10.1239 74.0272 11.0698V52.4391C74.0272 52.9218 73.9098 53.4037 73.6878 53.8326L72.305 56.5045L70.9222 53.8326C70.7002 53.4037 70.5828 52.9218 70.5828 52.4391Z" fill="#3A85F4"/>
<path d="M40.6131 65.9673C40.3987 65.9673 40.1931 65.8825 40.0414 65.7313L38.4644 64.1608C38.1486 63.8464 38.1486 63.3364 38.4644 63.022C38.7802 62.7075 39.2919 62.7075 39.6077 63.022L40.613 64.0231L41.6178 63.0222C41.9334 62.7077 42.4455 62.7078 42.7611 63.022C43.0769 63.3366 43.0769 63.8465 42.7611 64.1609L41.1847 65.7313C41.0332 65.8824 40.8275 65.9673 40.6131 65.9673Z" fill="#3A85F4"/>
<defs>
<linearGradient id="paint0_linear_73_10385" x1="0.692438" y1="41.2739" x2="82.1016" y2="41.2739" gradientUnits="userSpaceOnUse">
<stop stop-color="#70BEFE" stop-opacity="0"/>
<stop offset="1" stop-color="#76C1FE"/>
</linearGradient>
</defs>
</svg>
