<svg width="77" height="70" viewBox="0 0 77 70" fill="none" xmlns="http://www.w3.org/2000/svg">
<path d="M74.8871 17.5968C71.5853 9.28335 61.4145 4.29791 52.8001 7.59708C42.967 11.3629 46.2273 26.8393 37.2958 29.9688C32.4711 31.6593 25.3389 25.3445 20.4644 24.376C11.4822 22.5917 3.35071 28.8631 1.34842 37.5479C-0.694341 46.4081 2.58202 58.2422 12.4198 60.6471C24.1385 63.5116 30.2427 53.0876 40.0734 50.0944C50.1617 47.0228 61.3787 54.2771 69.7304 45.4508C75.9006 38.93 78.1565 25.8288 74.8871 17.5968Z" fill="url(#paint0_linear_73_10439)"/>
<path opacity="0.11" d="M50.2074 4.4502H19.7845C18.0717 4.4502 16.6832 5.82417 16.6832 7.51906V17.5589C14.2563 18.245 12.4795 20.4499 12.4795 23.0659C12.4795 25.6819 14.2564 27.887 16.6832 28.5729V66.2659C16.6832 67.9607 18.0717 69.3347 19.7845 69.3347H50.2074C51.9202 69.3347 53.3087 67.9607 53.3087 66.2659V7.51906C53.3087 5.82417 51.9202 4.4502 50.2074 4.4502Z" fill="#3A85F4"/>
<path d="M56.855 4.45045V63.1973C56.855 64.8921 55.4665 66.2661 53.7537 66.2661H23.3308C21.618 66.2661 20.2295 64.8921 20.2295 63.1973V4.45045C20.2295 2.75557 21.618 1.38159 23.3308 1.38159H53.7537C55.4665 1.38159 56.855 2.75557 56.855 4.45045Z" fill="white"/>
<path d="M56.855 9.2731V4.45045C56.855 2.75557 55.4665 1.38159 53.7537 1.38159H23.3308C21.618 1.38159 20.2295 2.75557 20.2295 4.45045V9.27295L56.855 9.2731Z" fill="#D4EBFF"/>
<path d="M25.4095 6.31837C25.8655 6.31837 26.2351 5.95263 26.2351 5.50147C26.2351 5.05031 25.8655 4.68457 25.4095 4.68457C24.9536 4.68457 24.584 5.05031 24.584 5.50147C24.584 5.95263 24.9536 6.31837 25.4095 6.31837Z" fill="white"/>
<path d="M28.3519 6.31837C28.8079 6.31837 29.1775 5.95263 29.1775 5.50147C29.1775 5.05031 28.8079 4.68457 28.3519 4.68457C27.896 4.68457 27.5264 5.05031 27.5264 5.50147C27.5264 5.95263 27.896 6.31837 28.3519 6.31837Z" fill="white"/>
<path d="M31.2894 4.68457C31.7453 4.68457 32.115 5.05035 32.115 5.50147C32.115 5.9526 31.7453 6.31837 31.2894 6.31837C30.8335 6.31837 30.4639 5.9526 30.4639 5.50147C30.4639 5.05035 30.8335 4.68457 31.2894 4.68457Z" fill="white"/>
<path d="M19.9772 26.5602C23.178 26.5602 25.7727 23.9927 25.7727 20.8254C25.7727 17.6581 23.178 15.0906 19.9772 15.0906C16.7764 15.0906 14.1816 17.6581 14.1816 20.8254C14.1816 23.9927 16.7764 26.5602 19.9772 26.5602Z" fill="#D4EBFF"/>
<path d="M37.7643 37.8081V51.3787C37.7643 51.9929 37.4264 52.491 37.0094 52.491H33.2345C32.8176 52.491 32.4795 51.9929 32.4795 51.3787V37.8081C32.4795 37.1939 32.8176 36.6958 33.2345 36.6958H37.0094C37.4264 36.6958 37.7643 37.1939 37.7643 37.8081Z" fill="#D4EBFF"/>
<path d="M30.0417 40.0669V51.5497C30.0417 52.0694 29.7036 52.4909 29.2867 52.4909H25.5118C25.0949 52.4909 24.7568 52.0694 24.7568 51.5497V40.0669C24.7568 39.5472 25.0949 39.1257 25.5118 39.1257H29.2867C29.7036 39.1257 30.0417 39.5472 30.0417 40.0669Z" fill="#D4EBFF"/>
<path d="M45.0808 33.3756V51.7611C45.0808 52.3878 44.7427 52.896 44.3258 52.896H40.5509C40.134 52.896 39.7959 52.3878 39.7959 51.7611V33.3756C39.7959 32.7489 40.134 32.2407 40.5509 32.2407H44.3258C44.7427 32.2407 45.0808 32.7489 45.0808 33.3756Z" fill="#D4EBFF"/>
<path d="M52.3933 29.5439V51.5428C52.3933 52.0664 52.0553 52.491 51.6383 52.491H47.8634C47.4465 52.491 47.1084 52.0664 47.1084 51.5428V29.5439C47.1084 29.0203 47.4465 28.5957 47.8634 28.5957H51.6383C52.0553 28.5957 52.3933 29.0203 52.3933 29.5439Z" fill="#D4EBFF"/>
<path d="M33.1285 14.416H43.9829C44.3378 14.416 44.664 14.1808 44.7339 13.8365C44.8291 13.3668 44.4685 12.9546 44.0108 12.9546H33.1007C32.6429 12.9546 32.2825 13.3668 32.3776 13.8365C32.4473 14.1808 32.7736 14.416 33.1285 14.416Z" fill="#5A5A5A"/>
<path d="M39.244 19.6053H46.3116C46.5427 19.6053 46.7551 19.3913 46.8006 19.0779C46.8626 18.6504 46.6278 18.2751 46.3298 18.2751H39.2259C38.9278 18.2751 38.6932 18.6504 38.7551 19.0779C38.8005 19.3913 39.0129 19.6053 39.244 19.6053Z" fill="#5A5A5A"/>
<path d="M29.3906 16.9449H39.6976C40.0346 16.9449 40.3444 16.7309 40.4107 16.4175C40.5011 15.99 40.1587 15.6147 39.7241 15.6147H29.3642C28.9295 15.6147 28.5873 15.99 28.6776 16.4175C28.7438 16.7309 29.0536 16.9449 29.3906 16.9449Z" fill="#5A5A5A"/>
<path d="M42.1843 16.9449H48.074C48.2666 16.9449 48.4436 16.7309 48.4815 16.4175C48.5332 15.99 48.3375 15.6147 48.0891 15.6147H42.1692C41.9208 15.6147 41.7253 15.99 41.7769 16.4175C41.8147 16.7309 41.9917 16.9449 42.1843 16.9449Z" fill="#5A5A5A"/>
<path d="M31.0944 19.6053H36.9841C37.1767 19.6053 37.3537 19.3913 37.3916 19.0779C37.4433 18.6504 37.2476 18.2751 36.9993 18.2751H31.0794C30.831 18.2751 30.6354 18.6504 30.687 19.0779C30.7249 19.3913 30.9019 19.6053 31.0944 19.6053Z" fill="#5A5A5A"/>
<path d="M53.8933 66.9962H45.7128C45.6728 66.9962 45.6329 66.9815 45.604 66.9542C44.9283 66.3171 45.3745 65.5349 46.005 65.5349H53.3525C54.8765 65.5349 56.1118 64.3124 56.1118 62.8045V25.2707C56.1118 25.2311 56.1268 25.1916 56.1544 25.163C56.7981 24.4944 57.5887 24.9359 57.5887 25.5597V63.3395C57.5888 65.3591 55.9343 66.9962 53.8933 66.9962Z" fill="#3A85F4"/>
<path d="M38.576 62.1077C38.3799 62.1077 38.1919 62.0305 38.0534 61.8933L37.1924 61.0399C36.9043 60.7542 36.9047 60.2916 37.1933 60.0065C37.4818 59.7216 37.9494 59.7219 38.2375 60.0074L38.576 60.3428L38.9145 60.0074C39.2027 59.7219 39.6702 59.7214 39.9588 60.0065C40.2474 60.2916 40.2478 60.7543 39.9597 61.0399L39.0987 61.8933C38.9603 62.0305 38.7722 62.1077 38.576 62.1077Z" fill="#3A85F4"/>
<path d="M53.7481 0.650391H23.3254C21.2048 0.650391 19.4856 2.35156 19.4856 4.44994V14.3131C16.0814 14.5319 13.3789 17.3403 13.3789 20.7633C13.3789 24.1862 16.0814 26.9948 19.4856 27.2134V63.3948C19.4856 65.3838 21.1152 66.9963 23.1253 66.9963H42.093C42.1331 66.9963 42.1729 66.9815 42.2019 66.9542C42.8775 66.3172 42.4314 65.5349 41.8008 65.5349H23.3254C22.0203 65.5349 20.9625 64.4881 20.9625 63.1967V27.1658C24.0662 26.6676 26.4437 23.9982 26.4437 20.7883C26.4437 17.5784 24.0662 14.9091 20.9625 14.4109V10.0031H56.1112V21.4167C56.1112 21.7681 56.3491 22.0912 56.6973 22.1599C57.1717 22.2534 57.588 21.8979 57.588 21.4466V4.43737C57.5879 2.34923 55.8654 0.650391 53.7481 0.650391ZM25.0338 20.8255C25.0338 23.5849 22.7652 25.8297 19.9767 25.8297C17.1881 25.8297 14.9195 23.5849 14.9195 20.8255C14.9195 18.0662 17.1881 15.8214 19.9767 15.8214C22.7652 15.8214 25.0338 18.0662 25.0338 20.8255ZM56.111 8.54175H20.9625V4.44994C20.9625 3.15853 22.0203 2.11175 23.3254 2.11175H53.7482C55.0533 2.11175 56.1112 3.15853 56.1112 4.44994L56.111 8.54175Z" fill="#3A85F4"/>
<path d="M22.593 34.1795H34.1218C34.8136 34.1795 39.5127 30.3078 40.0014 29.8835L42.2948 27.8958C42.4579 27.7545 42.6747 27.6767 42.9053 27.6767H49.5397C50.2318 27.6767 50.8955 27.4383 51.3848 27.0142L54.1925 24.5805C54.3555 24.4392 54.5765 24.3598 54.8072 24.3598L58.5362 24.3598C58.9542 24.3598 59.3384 24.1172 59.4207 23.762C59.5329 23.2774 59.1081 22.8521 58.5691 22.8521L54.7922 22.8521C54.1003 22.8521 53.4367 23.0903 52.9475 23.5144L50.1398 25.9481C49.9768 26.0894 49.7556 26.1689 49.525 26.1689H42.9131C42.2212 26.1689 41.5578 26.4071 41.0685 26.8312L38.7827 28.8126C38.6197 28.954 34.3499 32.6718 34.1192 32.6718H22.5601C22.0211 32.6718 21.5963 33.0971 21.7085 33.5817C21.7908 33.9369 22.175 34.1795 22.593 34.1795Z" fill="#3A85F4"/>
<path d="M63.2098 11.7567H62.7577V11.3093C62.7577 10.9582 62.5201 10.6354 62.1722 10.5662C61.6975 10.472 61.2809 10.8288 61.2809 11.2817V11.7567H60.8288C60.474 11.7567 60.1477 11.9918 60.0779 12.3361C59.9826 12.8058 60.3433 13.218 60.8009 13.218H61.2809V13.6653C61.2809 14.0165 61.5185 14.3393 61.8665 14.4084C62.3411 14.5027 62.7577 14.1458 62.7577 13.693V13.218H63.2377C63.6954 13.218 64.056 12.8058 63.9608 12.3361C63.8911 11.9918 63.5647 11.7567 63.2098 11.7567Z" fill="#D4EBFF"/>
<path d="M67.494 51.9442H67.0419V51.4968C67.0419 51.1457 66.8043 50.8229 66.4563 50.7537C65.9817 50.6595 65.5651 51.0163 65.5651 51.4692V51.9442H65.113C64.7581 51.9442 64.4319 52.1793 64.362 52.5236C64.2668 52.9933 64.6274 53.4055 65.0851 53.4055H65.5651V53.8528C65.5651 54.204 65.8027 54.5268 66.1506 54.5959C66.6253 54.6902 67.0419 54.3333 67.0419 53.8805V53.4055H67.5219C67.9796 53.4055 68.3402 52.9933 68.2449 52.5236C68.1751 52.1793 67.8489 51.9442 67.494 51.9442Z" fill="#D4EBFF"/>
<path d="M64.0655 45.9056C63.8502 45.9056 63.634 45.8733 63.4225 45.8083C62.8724 45.6391 62.4219 45.268 62.1539 44.7634C61.886 44.2588 61.8325 43.6811 62.0036 43.1369C62.1746 42.5927 62.5495 42.1468 63.0595 41.8818C63.5694 41.6167 64.1534 41.5638 64.7032 41.733C65.2533 41.9022 65.7039 42.2733 65.9718 42.7779C66.2399 43.2825 66.2932 43.8602 66.1222 44.4044C65.9511 44.9486 65.576 45.3944 65.0662 45.6595C64.7522 45.8228 64.4104 45.9056 64.0655 45.9056ZM64.0633 43.0979C63.7734 43.0979 63.5043 43.2829 63.4138 43.5708C63.3599 43.7424 63.3767 43.9244 63.4612 44.0834C63.5457 44.2424 63.6877 44.3595 63.8611 44.4128C64.2185 44.5227 64.6007 44.3246 64.7121 43.9703C64.766 43.7988 64.7491 43.6167 64.6647 43.4577C64.5802 43.2987 64.4383 43.1816 64.2649 43.1283C64.1978 43.1077 64.13 43.0979 64.0633 43.0979Z" fill="#D4EBFF"/>
<path d="M9.97556 36.4722C9.76024 36.4722 9.54403 36.4399 9.33255 36.3748C8.78257 36.2056 8.33199 35.8346 8.06409 35.33C7.79604 34.8254 7.74273 34.2478 7.91375 33.7035C8.08477 33.1591 8.45973 32.7133 8.96969 32.4482C9.47949 32.1831 10.0633 32.1302 10.6134 32.2994C11.7488 32.6488 12.3855 33.8473 12.0324 34.9708C11.8613 35.515 11.4864 35.9608 10.9764 36.2261C10.6623 36.3895 10.3204 36.4722 9.97556 36.4722ZM9.97202 33.6642C9.86332 33.6642 9.75551 33.6903 9.65656 33.7418C9.49588 33.8254 9.37759 33.9659 9.32368 34.1375C9.21248 34.4917 9.41303 34.8695 9.77087 34.9795C9.9444 35.0327 10.1283 35.0162 10.2889 34.9326C10.4496 34.849 10.5679 34.7086 10.6218 34.537C10.733 34.1828 10.5325 33.805 10.1745 33.6949C10.108 33.6744 10.04 33.6642 9.97202 33.6642Z" fill="#81C2FF"/>
<path d="M15.257 40.5405C15.0454 40.5405 14.8304 40.5094 14.618 40.444C13.4825 40.0946 12.8459 38.8963 13.199 37.7727C13.3701 37.2283 13.745 36.7826 14.255 36.5174C14.7649 36.2521 15.3487 36.1992 15.8987 36.3686C16.4488 36.5378 16.8993 36.9089 17.1673 37.4135C17.4354 37.9181 17.4887 38.4956 17.3176 39.04C17.0307 39.9535 16.1765 40.5405 15.257 40.5405ZM15.2576 37.7334C15.1489 37.7334 15.0411 37.7595 14.9422 37.811C14.7815 37.8945 14.6632 38.0351 14.6093 38.2067C14.4981 38.5608 14.6986 38.9387 15.0565 39.0487C15.4139 39.1583 15.7959 38.9603 15.9074 38.6061C15.9613 38.4345 15.9445 38.2526 15.86 38.0934C15.7755 37.9344 15.6335 37.8174 15.4601 37.7641C15.3936 37.7436 15.3254 37.7334 15.2576 37.7334Z" fill="#81C2FF"/>
<defs>
<linearGradient id="paint0_linear_73_10439" x1="35.1318" y1="18.0713" x2="42.9473" y2="55.8075" gradientUnits="userSpaceOnUse">
<stop stop-color="#77C2FE" stop-opacity="0"/>
<stop offset="1" stop-color="#77C2FE"/>
</linearGradient>
</defs>
</svg>
