<svg width="88" height="83" viewBox="0 0 88 83" fill="none" xmlns="http://www.w3.org/2000/svg">
<path d="M79.7841 5.0395C69.6009 -1.01152 56.4239 -0.675574 46.423 5.5239C40.8041 9.00698 36.4607 14.0306 31.5352 18.3552C27.2193 22.1446 22.2004 24.8476 17.743 28.4231C1.57773 41.3899 3.12014 76.3637 25.8826 81.0093C35.7496 83.0231 49.2352 83.669 55.0345 74.0575C60.5639 64.8932 62.4186 55.5186 73.2227 50.6508C76.9878 48.9543 83.281 49.0399 85.8316 45.3225C89.0503 40.6314 85.0565 35.7581 82.926 31.6701C80.1804 26.4017 79.6046 21.2075 81.5366 15.5561C83.1814 10.7437 84.3395 8.58199 79.7841 5.0395Z" fill="url(#paint0_linear_73_10335)"/>
<path opacity="0.1" d="M66.0502 49.6293C59.4456 49.6293 53.8006 53.725 51.5284 59.5086C51.5126 59.5028 51.4984 59.4945 51.482 59.4898L42.7546 56.9422C43.2775 55.3875 43.5613 53.7236 43.5613 51.9932C43.5613 47.9769 42.0344 44.3164 39.5281 41.5573L49.0515 35.0982C49.0628 35.0904 49.0716 35.0805 49.0825 35.0722C51.9391 38.6472 56.3416 40.9389 61.2816 40.9389C69.8924 40.9389 76.8728 33.9773 76.8728 25.3895C76.8728 16.8018 69.8924 9.84009 61.2816 9.84009C52.6708 9.84009 45.6904 16.8018 45.6904 25.3895C45.6904 28.4803 46.5947 31.3603 48.1536 33.781H48.1534L38.5201 40.3147C38.4713 40.3477 38.4282 40.3857 38.3894 40.4268C35.628 37.951 31.9757 36.4437 27.9701 36.4437C19.3593 36.4437 12.3789 43.4054 12.3789 51.9932C12.3789 60.5809 19.3593 67.5426 27.9701 67.5426C34.2821 67.5426 39.7178 63.8016 42.1703 58.4217C42.1989 58.4338 42.2262 58.4477 42.2565 58.4566L51.0247 61.0161C50.6564 62.3411 50.4588 63.7368 50.4588 65.1787C50.4588 73.7665 57.4392 80.7281 66.05 80.7281C74.6608 80.7281 81.6412 73.7665 81.6412 65.1787C81.6412 56.591 74.661 49.6293 66.0502 49.6293Z" fill="#3A85F4"/>
<path d="M61.2748 37.1162C69.8856 37.1162 76.866 30.1545 76.866 21.5668C76.866 12.9791 69.8856 6.01733 61.2748 6.01733C52.664 6.01733 45.6836 12.9791 45.6836 21.5668C45.6836 30.1545 52.664 37.1162 61.2748 37.1162Z" fill="#D4EBFF"/>
<path d="M27.9701 63.7197C36.5809 63.7197 43.5613 56.758 43.5613 48.1703C43.5613 39.5826 36.5809 32.6208 27.9701 32.6208C19.3593 32.6208 12.3789 39.5826 12.3789 48.1703C12.3789 56.758 19.3593 63.7197 27.9701 63.7197Z" fill="#D4EBFF"/>
<path d="M66.056 76.9055C74.6668 76.9055 81.6472 69.9438 81.6472 61.3561C81.6472 52.7684 74.6668 45.8066 66.056 45.8066C57.4453 45.8066 50.4648 52.7684 50.4648 61.3561C50.4648 69.9438 57.4453 76.9055 66.056 76.9055Z" fill="#D4EBFF"/>
<path d="M30.8955 23.2389C30.4544 23.2389 30.0969 22.8823 30.0969 22.4425C30.0969 21.9154 29.667 21.4867 29.1384 21.4867C28.6973 21.4867 28.3398 21.1301 28.3398 20.6903C28.3398 20.2505 28.6973 19.8938 29.1384 19.8938C29.667 19.8938 30.0969 19.4652 30.0969 18.9381C30.0969 18.4983 30.4544 18.1416 30.8955 18.1416C31.3367 18.1416 31.6941 18.4983 31.6941 18.9381C31.6941 19.4652 32.1239 19.8938 32.6523 19.8938C33.0934 19.8938 33.4509 20.2505 33.4509 20.6903C33.4509 21.1301 33.0934 21.4867 32.6523 21.4867C32.1239 21.4867 31.6941 21.9154 31.6941 22.4425C31.6941 22.8823 31.3367 23.2389 30.8955 23.2389Z" fill="#81C2FF"/>
<path d="M78.6024 39.6994C78.1612 39.6994 77.8038 39.3427 77.8038 38.9029C77.8038 38.3758 77.374 37.9472 76.8455 37.9472C76.4043 37.9472 76.0469 37.5905 76.0469 37.1507C76.0469 36.7109 76.4043 36.3543 76.8455 36.3543C77.374 36.3543 77.8038 35.9256 77.8038 35.3985C77.8038 34.9587 78.1612 34.6021 78.6024 34.6021C79.0435 34.6021 79.401 34.9587 79.401 35.3985C79.401 35.9256 79.8308 36.3543 80.3593 36.3543C80.8005 36.3543 81.1579 36.7109 81.1579 37.1507C81.1579 37.5905 80.8005 37.9472 80.3593 37.9472C79.8308 37.9472 79.401 38.3758 79.401 38.9029C79.401 39.3427 79.0435 39.6994 78.6024 39.6994Z" fill="#D4EBFF"/>
<path d="M36.1571 72.467C35.7159 72.467 35.3585 72.1103 35.3585 71.6705C35.3585 71.1434 34.9287 70.7148 34.4002 70.7148C33.959 70.7148 33.6016 70.3581 33.6016 69.9183C33.6016 69.4785 33.959 69.1218 34.4002 69.1218C34.9287 69.1218 35.3585 68.6932 35.3585 68.1661C35.3585 67.7263 35.7159 67.3696 36.1571 67.3696C36.5982 67.3696 36.9557 67.7263 36.9557 68.1661C36.9557 68.6932 37.3855 69.1218 37.914 69.1218C38.3551 69.1218 38.7126 69.4785 38.7126 69.9183C38.7126 70.3581 38.3551 70.7148 37.914 70.7148C37.3855 70.7148 36.9557 71.1434 36.9557 71.6705C36.9557 72.1103 36.5982 72.467 36.1571 72.467Z" fill="#81C2FF"/>
<path d="M36.8055 27.8584C36.6012 27.8584 36.3966 27.7807 36.2409 27.6252L34.4839 25.873C34.172 25.5619 34.172 25.0576 34.4839 24.7466L36.2409 22.9944C36.5525 22.6835 37.0585 22.6835 37.3701 22.9944L39.127 24.7466C39.4389 25.0577 39.4389 25.5621 39.127 25.873L37.3701 27.6252C37.2144 27.7805 37.0099 27.8584 36.8055 27.8584ZM36.1779 25.3097L36.8055 25.9356L37.433 25.3097L36.8055 24.6839L36.1779 25.3097Z" fill="#D4EBFF"/>
<path d="M45.3211 74.5813C45.1168 74.5813 44.9122 74.5036 44.7565 74.3481L42.9996 72.5959C42.6876 72.2848 42.6876 71.7805 42.9996 71.4695L44.7565 69.7173C45.0681 69.4064 45.5741 69.4064 45.8857 69.7173L47.6426 71.4695C47.9546 71.7806 47.9546 72.285 47.6426 72.5959L45.8857 74.3481C45.73 74.5036 45.5255 74.5813 45.3211 74.5813ZM44.6937 72.0326L45.3213 72.6585L45.9488 72.0326L45.3213 71.4068L44.6937 72.0326Z" fill="#9ED0FF"/>
<path d="M3.18438 58.3391C2.9801 58.3391 2.7755 58.2614 2.61977 58.1059L0.862856 56.3537C0.550923 56.0426 0.550923 55.5383 0.862856 55.2274L2.61977 53.4751C2.93139 53.1642 3.43738 53.1642 3.74899 53.4751L5.50591 55.2274C5.81784 55.5385 5.81784 56.0428 5.50591 56.3537L3.74899 58.1059C3.59326 58.2614 3.38882 58.3391 3.18438 58.3391ZM2.557 55.7905L3.18454 56.4163L3.81208 55.7905L3.18454 55.1646L2.557 55.7905Z" fill="#81C2FF"/>
<path d="M39.0508 36.9303L48.3742 30.5869" stroke="#5A5A5A" stroke-width="3"/>
<path fill-rule="evenodd" clip-rule="evenodd" d="M27.9681 64.5163C34.6278 64.5163 40.3721 60.534 42.9338 54.832C43.0455 54.6051 43.3185 53.9895 43.5168 53.3424C44.0621 51.7162 44.3582 49.9772 44.3582 48.1704C44.3582 43.9942 42.779 40.1795 40.1858 37.2871C40.0563 37.1404 39.3715 36.4574 39.0453 36.1341C36.1261 33.4596 32.2352 31.8243 27.9679 31.8243C18.9305 31.8243 11.5781 39.157 11.5781 48.1702C11.5783 57.1836 18.9307 64.5163 27.9681 64.5163ZM47.4964 30.4024C47.7648 30.7822 48.3268 31.5732 48.4269 31.6977C51.4314 35.4809 56.0762 37.9123 61.2799 37.9123C65.1809 37.9123 68.9601 36.5222 71.9215 33.9979C74.8498 31.5019 76.8107 28.0515 77.443 24.2824C77.5157 23.8484 77.2221 23.438 76.7872 23.3653C76.3531 23.2935 75.9405 23.5856 75.8677 24.0195C75.2973 27.4202 73.5273 30.5338 70.8838 32.7871C68.2114 35.065 64.8006 36.3196 61.2799 36.3196C53.1231 36.3196 46.4871 29.7015 46.4871 21.5666C46.4871 13.4317 53.1231 6.81362 61.2799 6.81362C68.4452 6.81362 74.5673 11.9095 75.8367 18.9305C75.915 19.3634 76.3298 19.6506 76.7645 19.5729C77.1985 19.4948 77.4869 19.0807 77.4087 18.6477C76.0017 10.8676 69.2187 5.2207 61.2795 5.2207C52.2421 5.2207 44.8896 12.5534 44.8896 21.5666C44.8896 24.8193 45.8476 27.853 47.4964 30.4024ZM49.6583 61.3558C49.6583 59.8568 49.8613 58.3845 50.2557 56.9692C50.304 56.6889 50.6123 55.8442 50.7604 55.4569C51.2324 54.2418 51.8505 53.0796 52.6127 51.9936C52.8657 51.6331 53.3637 51.5456 53.725 51.7978C54.0862 52.05 54.1741 52.5465 53.9212 52.9069C52.1774 55.3917 51.2557 58.3133 51.2557 61.3558C51.2557 69.4907 57.8917 76.1088 66.0483 76.1088C74.2049 76.1088 80.8409 69.4907 80.8409 61.3558C80.8409 53.2209 74.2049 46.6028 66.0483 46.6028C62.9724 46.6028 60.0233 47.5355 57.5202 49.3001C57.1604 49.5539 56.6619 49.4688 56.4071 49.1094C56.1525 48.7502 56.2381 48.2532 56.5983 47.9993C59.3725 46.0437 62.6402 45.0099 66.0481 45.0099C75.0856 45.0099 82.4379 52.3427 82.4379 61.3558C82.4379 70.369 75.0856 77.7017 66.0481 77.7017C57.0107 77.7017 49.6583 70.369 49.6583 61.3558ZM27.9681 33.4173C36.1246 33.4173 42.7607 40.0354 42.7607 48.1702C42.7607 56.3051 36.1246 62.9232 27.9681 62.9232C19.8115 62.9232 13.1755 56.3051 13.1755 48.1702C13.1755 40.0355 19.8115 33.4173 27.9681 33.4173Z" fill="#3A85F4"/>
<ellipse cx="61.2737" cy="21.2986" rx="12.0393" ry="12.0071" fill="white"/>
<ellipse cx="27.6526" cy="48.031" rx="12.0393" ry="12.0071" fill="white"/>
<ellipse cx="65.8176" cy="61.1709" rx="12.0393" ry="12.0071" fill="white"/>
<ellipse cx="66.0745" cy="61.0394" rx="4.18391" ry="4.1727" fill="#3A85F4"/>
<path fill-rule="evenodd" clip-rule="evenodd" d="M59.2637 71.2482C59.4437 69.2994 60.3187 66.9154 62.8844 65.9707C63.8389 66.681 66.4379 67.6754 69.1974 65.9707C70.3876 66.3642 72.4565 67.8531 72.8524 70.9124C70.8833 72.3304 68.4671 73.1691 65.8549 73.1781H65.7698C63.371 73.1698 61.1375 72.4619 59.2637 71.2482Z" fill="#3A85F4"/>
<ellipse cx="27.8792" cy="47.8993" rx="4.18391" ry="4.1727" fill="#3A85F4"/>
<path fill-rule="evenodd" clip-rule="evenodd" d="M21.0684 58.1081C21.2484 56.1594 22.1235 53.7755 24.689 52.8308C25.6436 53.5411 28.2426 54.5355 31.0021 52.8308C32.1923 53.2243 34.2611 54.7131 34.6571 57.7723C32.6773 59.1979 30.2455 60.038 27.617 60.038C25.2021 60.038 22.9532 59.3289 21.0684 58.1081Z" fill="#3A85F4"/>
<ellipse cx="61.4925" cy="21.1666" rx="4.18391" ry="4.1727" fill="#3A85F4"/>
<path fill-rule="evenodd" clip-rule="evenodd" d="M54.6855 31.3754C54.8656 29.4266 55.7406 27.0426 58.3062 26.0979C59.2608 26.8082 61.8598 27.8026 64.6193 26.0979C65.8095 26.4914 67.8784 27.9803 68.2743 31.0396C66.3052 32.4576 63.889 33.2963 61.2768 33.3053H61.1917C58.7929 33.297 56.5593 32.5891 54.6855 31.3754Z" fill="#3A85F4"/>
<path d="M43.1445 54.1479L50.4213 56.4134" stroke="#5A5A5A" stroke-width="3"/>
<defs>
<linearGradient id="paint0_linear_73_10335" x1="6.98807" y1="41.4613" x2="87.0399" y2="41.4613" gradientUnits="userSpaceOnUse">
<stop stop-color="#6EBDFE" stop-opacity="0"/>
<stop offset="1" stop-color="#6EBDFE"/>
</linearGradient>
</defs>
</svg>
