<svg width="80" height="75" viewBox="0 0 80 75" fill="none" xmlns="http://www.w3.org/2000/svg">
<path d="M50.4125 9.34491C50.2118 9.34491 50.0117 9.34666 49.8121 9.3503C44.8388 9.44002 40.0463 7.6432 36.1804 4.53269C32.7524 1.77453 28.3778 0.13239 23.6162 0.16327C12.7505 0.233768 3.79543 9.35045 3.97527 20.1474C4.02363 23.0547 4.70751 25.8082 5.8947 28.277C7.91746 32.4834 7.48128 37.4876 4.67058 41.2202C3.50977 42.7618 2.55973 44.4997 1.87688 46.4063C-1.76178 56.5669 3.61339 67.861 13.8295 71.499C24.2331 75.2036 35.6419 69.7275 39.2133 59.3721C39.4779 58.6051 39.6919 57.833 39.8572 57.0594C40.9069 52.1465 45.2195 48.6294 50.2732 48.6503C50.3197 48.6505 50.3661 48.6506 50.4126 48.6506C64.4229 48.6506 75.7803 39.8518 75.7803 28.9978C75.7803 18.1439 64.4226 9.34491 50.4125 9.34491Z" fill="url(#paint0_linear_73_10272)"/>
<path d="M29.7224 9.39304H29.2827V8.95607C29.2827 8.55391 28.9546 8.22778 28.5499 8.22778C28.1452 8.22778 27.8171 8.55391 27.8171 8.95607V9.39304H27.3774C26.9727 9.39304 26.6445 9.71917 26.6445 10.1213C26.6445 10.5235 26.9727 10.8496 27.3774 10.8496H27.8171V11.2866C27.8171 11.6887 28.1452 12.0149 28.5499 12.0149C28.9546 12.0149 29.2827 11.6887 29.2827 11.2866V10.8496H29.7224C30.1271 10.8496 30.4553 10.5235 30.4553 10.1213C30.4553 9.71917 30.1272 9.39304 29.7224 9.39304Z" fill="#C4E2FF"/>
<path d="M48.5593 58.437H48.1196V58C48.1196 57.5979 47.7915 57.2717 47.3868 57.2717C46.9821 57.2717 46.654 57.5979 46.654 58V58.437H46.2143C45.8096 58.437 45.4814 58.7631 45.4814 59.1653C45.4814 59.5674 45.8096 59.8936 46.2143 59.8936H46.654V60.3305C46.654 60.7327 46.9821 61.0588 47.3868 61.0588C47.7915 61.0588 48.1196 60.7327 48.1196 60.3305V59.8936H48.5593C48.964 59.8936 49.2922 59.5674 49.2922 59.1653C49.2922 58.7631 48.964 58.437 48.5593 58.437Z" fill="#81C2FF"/>
<path d="M14.7302 58.437H14.2905V58C14.2905 57.5979 13.9624 57.2717 13.5577 57.2717C13.153 57.2717 12.8249 57.5979 12.8249 58V58.437H12.3852C11.9805 58.437 11.6523 58.7631 11.6523 59.1653C11.6523 59.5674 11.9805 59.8936 12.3852 59.8936H12.8249V60.3305C12.8249 60.7327 13.153 61.0588 13.5577 61.0588C13.9624 61.0588 14.2905 60.7327 14.2905 60.3305V59.8936H14.7302C15.1349 59.8936 15.4631 59.5674 15.4631 59.1653C15.4631 58.7631 15.1349 58.437 14.7302 58.437Z" fill="#81C2FF"/>
<path d="M54.6745 63.148C54.4869 63.148 54.2995 63.077 54.1563 62.9348L53.502 62.2846L52.8477 62.9348C52.5615 63.2191 52.0976 63.2191 51.8114 62.9348C51.5251 62.6503 51.5251 62.1892 51.8114 61.9049L52.9839 60.7396C53.2701 60.4553 53.734 60.4553 54.0203 60.7396L55.1928 61.9049C55.479 62.1893 55.479 62.6505 55.1928 62.9348C55.0497 63.077 54.8621 63.148 54.6745 63.148Z" fill="#81C2FF"/>
<path d="M22.8601 8.30845C22.6725 8.30845 22.485 8.23737 22.3418 8.09521L21.6875 7.44499L21.0333 8.09521C20.747 8.37953 20.2832 8.37953 19.9969 8.09521C19.7107 7.81074 19.7107 7.34959 19.9969 7.06527L21.1694 5.90001C21.4557 5.61569 21.9196 5.61569 22.2058 5.90001L23.3783 7.06527C23.6646 7.34973 23.6646 7.81089 23.3783 8.09521C23.2353 8.23737 23.0477 8.30845 22.8601 8.30845Z" fill="#BCDFFF"/>
<path d="M32.1182 50.1755H43.4565V64.6043H32.1182V50.1755Z" fill="white"/>
<path opacity="0.1" d="M66.5508 7.18799C63.3363 7.18799 60.682 9.56467 60.2659 12.646H42.0449C41.2359 12.646 40.5793 13.2986 40.5793 14.1026V20.4042H36.6306C36.4572 19.7918 35.8922 19.3419 35.2208 19.3419H15.9176C15.0244 16.9354 12.6963 15.2192 9.96448 15.2192C6.46111 15.2192 3.62109 18.0416 3.62109 21.5233C3.62109 24.1476 5.23493 26.3965 7.52987 27.3455V41.8286C7.52987 42.6326 8.18502 43.2852 8.99553 43.2852H9.05211V53.169C9.05211 54.3756 10.0364 55.3539 11.2506 55.3539H27.59V56.9822C27.59 57.7866 28.2461 58.4387 29.0556 58.4387H32.1165V66.5955H26.3487C25.5234 66.5955 24.8543 67.2605 24.8543 68.0807C24.8543 68.9009 25.5234 69.5659 26.3487 69.5659H49.2226C50.0479 69.5659 50.7169 68.901 50.7169 68.0807C50.7169 67.2603 50.0479 66.5955 49.2226 66.5955H43.4549V58.4387H46.5156C47.3251 58.4387 47.9813 57.7866 47.9813 56.9822V55.3539H64.3206C65.5348 55.3539 66.5191 54.3756 66.5191 53.169V30.8082H67.439C68.248 30.8082 68.9046 30.1556 68.9046 29.3516V19.346C71.2421 18.4168 72.8942 16.1469 72.8942 13.4922C72.8942 10.0104 70.0542 7.18799 66.5508 7.18799Z" fill="#3A85F4"/>
<path d="M46.5191 54.5059H29.0594C28.2499 54.5059 27.5938 53.8538 27.5938 53.0493V49.7505H47.9848V53.0493C47.9848 53.8538 47.3286 54.5059 46.5191 54.5059Z" fill="white"/>
<path d="M64.3241 51.4217H11.2542C10.04 51.4217 9.05566 50.4435 9.05566 49.2369V18.657C9.05566 17.4504 10.04 16.4722 11.2542 16.4722H64.3241C65.5382 16.4722 66.5226 17.4504 66.5226 18.657V49.2369C66.5226 50.4435 65.5382 51.4217 64.3241 51.4217Z" fill="#81C2FF"/>
<path d="M66.5214 18.656V45.5371H9.05566V18.656C9.05566 17.45 10.0391 16.4712 11.2542 16.4712H64.3229C65.5379 16.4712 66.5214 17.45 66.5214 18.656Z" fill="white"/>
<path d="M49.2237 65.6333H26.3499C25.5245 65.6333 24.8555 64.9684 24.8555 64.1482C24.8555 63.328 25.5245 62.6631 26.3499 62.6631H49.2237C50.049 62.6631 50.7181 63.328 50.7181 64.1482C50.7183 64.9684 50.0492 65.6333 49.2237 65.6333Z" fill="white"/>
<path d="M36.6916 16.866V37.896C36.6916 38.7 36.035 39.3525 35.2259 39.3525H28.374L27.1413 42.9561C26.7515 44.0966 25.1304 44.0966 24.7406 42.9561L23.5065 39.3525H9.00082C8.19031 39.3525 7.53516 38.7 7.53516 37.896V16.866C7.53516 16.062 8.19031 15.4094 9.00082 15.4094H35.2259C36.035 15.4094 36.6916 16.062 36.6916 16.866Z" fill="white"/>
<path d="M12.768 35.3306H32.5026C32.9074 35.3306 33.2354 35.0045 33.2354 34.6023C33.2354 34.2001 32.9074 33.874 32.5026 33.874H12.768C12.3632 33.874 12.0352 34.2001 12.0352 34.6023C12.0352 35.0045 12.3632 35.3306 12.768 35.3306Z" fill="#5A5A5A"/>
<path d="M12.768 27.6958H32.5026C32.9074 27.6958 33.2354 27.3697 33.2354 26.9675C33.2354 26.5654 32.9074 26.2393 32.5026 26.2393H12.768C12.3632 26.2393 12.0352 26.5654 12.0352 26.9675C12.0352 27.3697 12.3632 27.6958 12.768 27.6958Z" fill="#5A5A5A"/>
<path d="M12.768 30.2454H32.5026C32.9074 30.2454 33.2354 29.9193 33.2354 29.5171C33.2354 29.1149 32.9074 28.7888 32.5026 28.7888H12.768C12.3632 28.7888 12.0352 29.1149 12.0352 29.5171C12.0352 29.9193 12.3632 30.2454 12.768 30.2454Z" fill="#5A5A5A"/>
<path d="M25.2436 22.5972H32.5015C32.9064 22.5972 33.2344 22.2711 33.2344 21.8689C33.2344 21.4668 32.9064 21.1406 32.5015 21.1406H25.2436C24.8388 21.1406 24.5107 21.4668 24.5107 21.8689C24.5107 22.2711 24.8388 22.5972 25.2436 22.5972Z" fill="#5A5A5A"/>
<path d="M33.236 24.4182C33.236 24.8202 32.9077 25.1465 32.5031 25.1465H12.768C12.3635 25.1465 12.0352 24.8202 12.0352 24.4182C12.0352 24.0162 12.3635 23.6899 12.768 23.6899H32.5031C32.9077 23.6899 33.236 24.0162 33.236 24.4182Z" fill="#5A5A5A"/>
<path d="M68.9045 10.1699V25.4188C68.9045 26.2228 68.2479 26.8754 67.4388 26.8754H52.2795L51.0454 30.4789C50.6555 31.618 49.0345 31.618 48.6446 30.4789L47.412 26.8754H42.0448C41.2357 26.8754 40.5791 26.2228 40.5791 25.4188V10.1699C40.5791 9.36592 41.2357 8.71338 42.0448 8.71338H67.4388C68.2479 8.71338 68.9045 9.36592 68.9045 10.1699Z" fill="white"/>
<path d="M9.96448 23.8947C13.4678 23.8947 16.3079 21.0723 16.3079 17.5907C16.3079 14.109 13.4678 11.2866 9.96448 11.2866C6.46113 11.2866 3.62109 14.109 3.62109 17.5907C3.62109 21.0723 6.46113 23.8947 9.96448 23.8947Z" fill="#D4EBFF"/>
<path d="M62.1196 35.9615C62.5243 35.9615 62.8524 35.6354 62.8524 35.2332C62.8524 34.8309 62.5243 34.5049 62.1196 34.5049C61.7148 34.5049 61.3867 34.8309 61.3867 35.2332C61.3867 35.6354 61.7148 35.9615 62.1196 35.9615Z" fill="#5A5A5A"/>
<path d="M59.7367 35.9615C60.1415 35.9615 60.4696 35.6354 60.4696 35.2332C60.4696 34.8309 60.1415 34.5049 59.7367 34.5049C59.332 34.5049 59.0039 34.8309 59.0039 35.2332C59.0039 35.6354 59.332 35.9615 59.7367 35.9615Z" fill="#5A5A5A"/>
<path d="M55.0883 38.5906H62.3463C62.7511 38.5906 63.0791 38.2645 63.0791 37.8623C63.0791 37.4602 62.7511 37.134 62.3463 37.134H55.0883C54.6835 37.134 54.3555 37.4602 54.3555 37.8623C54.3555 38.2645 54.6835 38.5906 55.0883 38.5906Z" fill="#5A5A5A"/>
<path d="M51.1313 41.1399H62.3465C62.7513 41.1399 63.0794 40.8138 63.0794 40.4116C63.0794 40.0095 62.7513 39.6833 62.3465 39.6833H51.1313C50.7265 39.6833 50.3984 40.0095 50.3984 40.4116C50.3984 40.8138 50.7265 41.1399 51.1313 41.1399Z" fill="#5A5A5A"/>
<path d="M66.5504 15.8634C70.0538 15.8634 72.8938 13.041 72.8938 9.55941C72.8938 6.07779 70.0538 3.25537 66.5504 3.25537C63.0471 3.25537 60.207 6.07779 60.207 9.55941C60.207 13.041 63.0471 15.8634 66.5504 15.8634Z" fill="#D5EBFF"/>
<path d="M73.6292 9.55918C73.6292 5.6815 70.4549 2.52686 66.553 2.52686C63.1959 2.52686 60.3795 4.8629 59.6578 7.98463H42.0474C40.8352 7.98463 39.8489 8.96475 39.8489 10.1695V15.7431H37.1048C36.7197 15.1083 36.0212 14.6814 35.2226 14.6814H16.4067C15.291 12.2518 12.825 10.5581 9.96685 10.5581C6.06496 10.5581 2.89062 13.7127 2.89062 17.5904C2.89062 20.3368 4.4838 22.7187 6.79911 23.876V37.8959C6.79911 38.8663 7.43931 39.6898 8.32164 39.974V49.236C8.32164 50.8423 9.63663 52.1492 11.253 52.1492H26.8595V53.0492C26.8595 54.2539 27.8457 55.234 29.058 55.234H31.386V61.9343H26.351C25.123 61.9343 24.1238 62.9272 24.1238 64.1477C24.1238 65.3681 25.123 66.3611 26.351 66.3611H49.2249C50.453 66.3611 51.4523 65.3681 51.4523 64.1477C51.4523 62.9272 50.4531 61.9343 49.2249 61.9343H44.1899V55.234H46.5178C47.7301 55.234 48.7163 54.2539 48.7163 53.0492V52.1492H64.3229C65.9392 52.1492 67.2542 50.8423 67.2542 49.236V27.6038H67.4414C68.6536 27.6038 69.6398 26.6236 69.6398 25.4189V15.8859C71.9993 14.7443 73.6292 12.3376 73.6292 9.55918ZM4.35643 17.5904C4.35643 14.516 6.87327 12.0147 9.96699 12.0147C13.0607 12.0147 15.5775 14.5159 15.5775 17.5904C15.5775 20.665 13.0607 23.1662 9.96699 23.1662C6.87327 23.1662 4.35643 20.665 4.35643 17.5904ZM8.26477 24.4158C8.81029 24.5502 9.38014 24.6227 9.96685 24.6227C13.8687 24.6227 17.0431 21.4681 17.0431 17.5904C17.0431 17.0926 16.9899 16.6068 16.8905 16.1379H35.2226C35.6266 16.1379 35.9554 16.4646 35.9554 16.8662V37.8959C35.9554 38.2975 35.6266 38.6242 35.2226 38.6242H28.3716C28.0578 38.6242 27.7789 38.8227 27.6778 39.118L26.4447 42.7217C26.3302 43.0564 26.0279 43.0825 25.9379 43.0825C25.848 43.0825 25.5457 43.0564 25.4311 42.7217L24.198 39.118C24.097 38.8227 23.8179 38.6242 23.5041 38.6242H8.99775C8.59367 38.6242 8.26492 38.2975 8.26492 37.8959L8.26477 24.4158ZM43.4571 63.391H49.2249C49.645 63.391 49.9866 63.7305 49.9866 64.1478C49.9866 64.5651 49.645 64.9046 49.2249 64.9046H26.351C25.9311 64.9046 25.5895 64.5651 25.5895 64.1478C25.5895 63.7305 25.9311 63.391 26.351 63.391H38.9722C39.3768 63.391 39.705 63.0649 39.705 62.6627C39.705 62.2605 39.3768 61.9344 38.9722 61.9344H32.8517V55.2342H42.7244V62.6627C42.7243 63.0649 43.0524 63.391 43.4571 63.391ZM47.2507 53.0493C47.2507 53.4509 46.9219 53.7776 46.5178 53.7776H29.0581C28.654 53.7776 28.3253 53.4509 28.3253 53.0493V52.1493H47.2507V53.0493ZM68.1743 25.4189C68.1743 25.8205 67.8456 26.1472 67.4415 26.1472H52.2814C51.9676 26.1472 51.6887 26.3457 51.5876 26.641L50.3545 30.2447C50.24 30.5794 49.9377 30.6055 49.8477 30.6055C49.7577 30.6055 49.4553 30.5794 49.3409 30.2447L48.1078 26.641C48.0068 26.3457 47.7277 26.1472 47.4139 26.1472H42.0474C41.6433 26.1472 41.3146 25.8205 41.3146 25.4189V16.6142C41.3146 16.2121 40.9864 15.8859 40.5818 15.8859C40.1771 15.8859 39.8489 16.2121 39.8489 16.6142V25.4189C39.8489 26.6236 40.8352 27.6038 42.0474 27.6038H46.8891L47.9532 30.7137C48.2335 31.5329 48.9771 32.062 49.8477 32.062C50.7181 32.062 51.4618 31.5329 51.742 30.7137L52.8061 27.6038H65.7885V49.2362C65.7885 50.0393 65.131 50.6927 64.3229 50.6927H11.253C10.4448 50.6927 9.7873 50.0393 9.7873 49.2362V40.0809H22.9794L24.0435 43.1908C24.3239 44.01 25.0674 44.5392 25.9379 44.5392C26.8085 44.5392 27.552 44.01 27.8324 43.1908L28.8965 40.0809H35.2226C36.4348 40.0809 37.4211 39.1008 37.4211 37.896V17.1996H40.5815C40.8591 17.1996 41.1129 17.0433 41.2372 16.7966C41.2881 16.6955 41.3146 16.5841 41.3146 16.4709V10.1696C41.3146 9.76805 41.6433 9.44134 42.0474 9.44134H59.4799C59.4791 9.48067 59.4768 9.51971 59.4768 9.55933C59.4768 13.437 62.6511 16.5916 66.553 16.5916C67.111 16.5916 67.6533 16.5251 68.1743 16.4032V25.4189ZM66.5532 15.1349C63.4596 15.1349 60.9426 12.6337 60.9426 9.55918C60.9426 6.48465 63.4594 3.98343 66.5532 3.98343C69.6469 3.98343 72.1637 6.48465 72.1637 9.55918C72.1637 12.6337 69.6467 15.1349 66.5532 15.1349Z" fill="#3A85F4"/>
<path d="M64.5963 19.8755H44.8617C44.4569 19.8755 44.1289 19.5494 44.1289 19.1472C44.1289 18.7451 44.4569 18.4189 44.8617 18.4189H64.5963C65.0011 18.4189 65.3291 18.7451 65.3291 19.1472C65.3291 19.5494 65.001 19.8755 64.5963 19.8755Z" fill="#5A5A5A"/>
<path d="M64.5963 22.4251H44.8617C44.4569 22.4251 44.1289 22.099 44.1289 21.6968C44.1289 21.2946 44.4569 20.9685 44.8617 20.9685H64.5963C65.0011 20.9685 65.3291 21.2946 65.3291 21.6968C65.3291 22.099 65.001 22.4251 64.5963 22.4251Z" fill="#5A5A5A"/>
<path d="M65.3297 16.5979C65.3297 16.9999 65.0014 17.3262 64.5969 17.3262H44.8617C44.4572 17.3262 44.1289 16.9999 44.1289 16.5979C44.1289 16.1959 44.4572 15.8696 44.8617 15.8696H64.5969C65.0014 15.8696 65.3297 16.1959 65.3297 16.5979Z" fill="#5A5A5A"/>
<path d="M52.1246 14.7769H44.8666C44.4618 14.7769 44.1338 14.4508 44.1338 14.0486C44.1338 13.6464 44.4618 13.3203 44.8666 13.3203H52.1246C52.5294 13.3203 52.8574 13.6464 52.8574 14.0486C52.8574 14.4508 52.5294 14.7769 52.1246 14.7769Z" fill="#5A5A5A"/>
<path d="M65.0977 61.2072L66.693 59.6179L71.5342 64.441L69.9389 66.0303L65.0977 61.2072Z" fill="white"/>
<path d="M66.6416 61.1529C63.0099 64.771 57.1007 64.771 53.4689 61.1529C49.8371 57.5348 49.8372 51.6476 53.4689 48.0295C57.1006 44.4114 63.0099 44.4114 66.6416 48.0295C70.2733 51.6476 70.2733 57.5347 66.6416 61.1529Z" fill="#81C2FF"/>
<path d="M60.0512 61.5704C63.9201 61.5704 67.0565 58.4458 67.0565 54.5914C67.0565 50.7369 63.9201 47.6123 60.0512 47.6123C56.1823 47.6123 53.0459 50.7369 53.0459 54.5914C53.0459 58.4458 56.1823 61.5704 60.0512 61.5704Z" fill="white" fill-opacity="0.86"/>
<path d="M64.3941 49.1078L54.5546 58.9103C54.1655 58.4195 53.853 57.8878 53.6162 57.3319L62.8097 48.1729C63.3677 48.4087 63.9013 48.7201 64.3941 49.1078Z" fill="white"/>
<path d="M66.998 53.6654L59.1268 61.5071C57.7122 61.3207 56.3437 60.7041 55.2373 59.6582L65.142 49.7905C66.1919 50.8928 66.8109 52.2561 66.998 53.6654Z" fill="white"/>
<path d="M79.1549 72.1011L77.6315 73.6187C77.331 73.918 76.8439 73.918 76.5435 73.6187L69.326 66.4282C69.0255 66.1288 69.0255 65.6435 69.326 65.3442L70.8493 63.8266C71.1498 63.5272 71.6369 63.5272 71.9373 63.8266L79.1549 71.0171C79.4553 71.3165 79.4553 71.8018 79.1549 72.1011Z" fill="white"/>
<path d="M75.3389 72.42L76.5423 73.6188C76.8428 73.9182 77.3299 73.9182 77.6303 73.6188L79.1536 72.1012C79.4541 71.8019 79.4541 71.3165 79.1536 71.0173L77.9502 69.8184L75.3389 72.42Z" fill="#81C2FF"/>
<path d="M70.3779 67.4836L72.989 64.8823L74.7122 66.5991L72.1012 69.2004L70.3779 67.4836Z" fill="#81C2FF"/>
<path d="M59.5169 57.1292C59.2765 57.1292 59.0817 56.935 59.0817 56.6956V56.1738C59.0817 55.8373 59.1703 55.5049 59.3379 55.2126C59.5945 54.7652 60.0271 54.4334 60.5247 54.3023C61.2845 54.1022 61.8153 53.4148 61.8153 52.6305C61.8153 52.1596 61.6286 51.7194 61.2897 51.3909C60.951 51.0627 60.504 50.8894 60.0303 50.9022C59.121 50.9272 58.3648 51.6848 58.3446 52.591C58.3404 52.7802 58.3665 52.9665 58.4221 53.1447C58.4935 53.3734 58.3653 53.6164 58.1357 53.6875C57.9063 53.7586 57.6622 53.631 57.5908 53.4022C57.5072 53.1343 57.468 52.8549 57.4743 52.5717C57.5052 51.1877 58.6174 50.0735 60.0062 50.0352C60.7178 50.0161 61.388 50.2763 61.8968 50.7692C62.4056 51.2623 62.6858 51.9233 62.6858 52.6304C62.6858 53.8079 61.8886 54.8402 60.7471 55.1407C60.4735 55.2128 60.2354 55.3957 60.0937 55.6427C60.0011 55.8042 59.9521 55.9878 59.9521 56.1738V56.6955C59.9522 56.935 59.7574 57.1292 59.5169 57.1292Z" fill="#5A5A5A"/>
<path d="M59.5153 58.7946C59.2749 58.7946 59.0801 58.6003 59.0801 58.3606V58.3514C59.0801 58.1118 59.2749 57.9175 59.5153 57.9175C59.7558 57.9175 59.9506 58.1118 59.9506 58.3514V58.3606C59.9506 58.6004 59.7558 58.7946 59.5153 58.7946Z" fill="#5A5A5A"/>
<path fill-rule="evenodd" clip-rule="evenodd" d="M79.456 70.7108L72.4667 63.7476C72.0231 63.3057 71.7015 63.1902 71.5962 63.1877C71.5276 63.1757 71.4578 63.1687 71.3867 63.1687C71.2354 63.1687 71.0888 63.1972 70.9519 63.25L67.9599 60.2693C70.7069 56.4752 70.3684 51.1353 66.9433 47.723C63.1418 43.9358 56.9563 43.9358 53.1551 47.723C51.3164 49.5548 50.3037 51.994 50.3037 54.5913C50.3037 57.1885 51.3164 59.6279 53.1551 61.4596C55.0558 63.3532 57.5525 64.2999 60.0492 64.2999C62.0516 64.2999 64.0536 63.6904 65.7485 62.4724L68.7404 65.4531C68.6874 65.5896 68.6588 65.7357 68.6588 65.8864C68.6588 66.207 68.784 66.5084 69.0117 66.7351L71.5962 69.31L76.2291 73.9255C76.4567 74.1522 76.7592 74.2771 77.081 74.2771C77.4028 74.2771 77.7053 74.1523 77.9327 73.9256L79.456 72.408C79.9257 71.9401 79.9257 71.1787 79.456 70.7108ZM51.1741 54.5913C51.1741 56.957 52.0963 59.1784 53.7705 60.8464C57.2328 64.2954 62.8657 64.2953 66.3277 60.8465C69.7897 57.3974 69.7897 51.7854 66.3277 48.3363C64.5966 46.6118 62.3228 45.7495 60.049 45.7495C57.7753 45.7495 55.5015 46.6117 53.7705 48.3362C52.0963 50.0042 51.1741 52.2256 51.1741 54.5913ZM67.4157 60.9537C67.2652 61.1265 67.108 61.2954 66.9432 61.4596C66.7784 61.6238 66.6088 61.7804 66.4354 61.9304L69.283 64.7674L70.2633 63.7908L67.4157 60.9537ZM77.3171 73.3125L78.8405 71.7948C78.9707 71.6649 78.9707 71.4538 78.8404 71.3242L71.623 64.1337C71.5598 64.0707 71.4759 64.0361 71.3866 64.0361C71.2974 64.0361 71.2136 64.0707 71.1505 64.1336L69.6271 65.6512C69.5639 65.7141 69.5292 65.7977 69.5292 65.8866C69.5292 65.9755 69.5639 66.0591 69.6271 66.122L76.8446 73.3125C76.9707 73.438 77.1909 73.4382 77.3171 73.3125Z" fill="#3A85F4"/>
<ellipse cx="66.7003" cy="9.05948" rx="2.24323" ry="2.23722" fill="#3A85F4"/>
<path fill-rule="evenodd" clip-rule="evenodd" d="M63.0459 14.5316C63.1427 13.487 63.6121 12.2099 64.987 11.7036C65.4988 12.0844 66.8923 12.6176 68.3718 11.7036C69.0102 11.9146 70.12 12.7134 70.3317 14.3549C69.2777 15.1131 67.985 15.562 66.5876 15.5679H66.5314C65.2462 15.5624 64.0497 15.1824 63.0459 14.5316Z" fill="#3A85F4"/>
<ellipse cx="9.84869" cy="16.7624" rx="2.24323" ry="2.23722" fill="#3A85F4"/>
<path fill-rule="evenodd" clip-rule="evenodd" d="M6.19531 22.2342C6.29215 21.1897 6.76152 19.9125 8.13642 19.4062C8.64822 19.7871 10.0417 20.3202 11.5212 19.4062C12.1596 19.6173 13.2694 20.4161 13.4811 22.0575C12.4271 22.8157 11.1346 23.2646 9.73719 23.2705H9.68059C8.39549 23.265 7.19904 22.885 6.19531 22.2342Z" fill="#3A85F4"/>
<defs>
<linearGradient id="paint0_linear_73_10272" x1="57.7812" y1="63.9404" x2="3.99711" y2="1.753" gradientUnits="userSpaceOnUse">
<stop stop-color="#5EB6FE" stop-opacity="0"/>
<stop offset="1" stop-color="#5FB6FE"/>
</linearGradient>
</defs>
</svg>
